HIERARCHY
ROOT Hips
{
 OFFSET 0.000000 0.000000 0.000000
 CHANNELS 6 Xposition Yposition Zposition Yrotation Xrotation Zrotation
 JOINT Chest
 {
  OFFSET 0.000000 9.588913 -0.003946
  CHANNELS 3 Yrotation Xrotation Zrotation
  JOINT Chest2
  {
   OFFSET 0.000000 9.541882 0.008053
   CHANNELS 3 Yrotation Xrotation Zrotation
   JOINT Chest3
   {
    OFFSET 0.000000 9.501360 0.000000
    CHANNELS 3 Yrotation Xrotation Zrotation
    JOINT Chest4
    {
     OFFSET 0.000000 9.491660 0.000000
     CHANNELS 3 Yrotation Xrotation Zrotation
     JOINT Neck
     {
      OFFSET 0.000000 14.331917 0.000000
      CHANNELS 3 Yrotation Xrotation Zrotation
      JOINT Head
      {
       OFFSET 0.000000 8.884799 0.017034
       CHANNELS 3 Yrotation Xrotation Zrotation
       End Site
       {
        OFFSET 0.000000 16.896195 0.008993
       }
      }
     }
     JOINT RightCollar
     {
      OFFSET -2.923010 9.499495 0.000000
      CHANNELS 3 Yrotation Xrotation Zrotation
      JOINT RightShoulder
      {
       OFFSET -13.795216 0.000000 0.000000
       CHANNELS 3 Yrotation Xrotation Zrotation
       JOINT RightElbow
       {
        OFFSET -30.272209 0.000000 0.000000
        CHANNELS 3 Yrotation Xrotation Zrotation
        JOINT RightWrist
        {
         OFFSET -24.478199 0.000000 0.000000
         CHANNELS 3 Yrotation Xrotation Zrotation
         End Site
         {
          OFFSET -18.090752 0.000000 0.000000
         }
        }
       }
      }
     }
     JOINT LeftCollar
     {
      OFFSET 2.923010 9.499495 0.000000
      CHANNELS 3 Yrotation Xrotation Zrotation
      JOINT LeftShoulder
      {
       OFFSET 13.795216 0.000000 0.000000
       CHANNELS 3 Yrotation Xrotation Zrotation
       JOINT LeftElbow
       {
        OFFSET 30.272209 0.000000 0.000000
        CHANNELS 3 Yrotation Xrotation Zrotation
        JOINT LeftWrist
        {
         OFFSET 24.478199 0.000000 0.000000
         CHANNELS 3 Yrotation Xrotation Zrotation
         End Site
         {
          OFFSET 18.090752 0.000000 0.000000
         }
        }
       }
      }
     }
    }
   }
  }
 }
 JOINT RightHip
 {
  OFFSET -7.826875 0.019532 0.001973
  CHANNELS 3 Yrotation Xrotation Zrotation
  JOINT RightKnee
  {
   OFFSET 0.000000 -40.546152 -0.001885
   CHANNELS 3 Yrotation Xrotation Zrotation
   JOINT RightAnkle
   {
    OFFSET 0.000000 -39.417092 -0.003189
    CHANNELS 3 Yrotation Xrotation Zrotation
    JOINT RightToe
    {
     OFFSET 0.000000 -7.579396 17.243563
     CHANNELS 3 Yrotation Xrotation Zrotation
     End Site
     {
      OFFSET 0.000000 -1.500329 6.694466
     }
    }
   }
  }
 }
 JOINT LeftHip
 {
  OFFSET 7.826875 0.019532 0.001973
  CHANNELS 3 Yrotation Xrotation Zrotation
  JOINT LeftKnee
  {
   OFFSET 0.000000 -40.546152 -0.001885
   CHANNELS 3 Yrotation Xrotation Zrotation
   JOINT LeftAnkle
   {
    OFFSET 0.000000 -39.417092 -0.003189
    CHANNELS 3 Yrotation Xrotation Zrotation
    JOINT LeftToe
    {
     OFFSET 0.000000 -7.579396 17.243563
     CHANNELS 3 Yrotation Xrotation Zrotation
     End Site
     {
      OFFSET 0.000000 -1.500329 6.694466
     }
    }
   }
  }
 }
}
MOTION
Frames: 5
Frame Time: 0.008333
3.226516 88.178678 28.437122 -59.132039 -8.676849 0.416030 6.940898 2.618293 0.381556 3.944000 1.513179 0.172699 4.931140 1.889336 0.232143 3.944000 1.513179 0.172699 -1.323216 11.413882 -0.273082 -1.320701 -13.657961 0.014765 -8.718639 5.445310 -1.979255 -4.467271 4.850933 92.607264 17.049835 -24.024387 6.340059 -2.131419 -20.188326 2.940871 -12.385222 3.902825 1.923553 6.942792 1.153768 -88.783305 -6.581347 -4.981900 -6.491249 4.139036 -0.208258 -1.704683 -5.423058 12.235688 -11.079911 23.176666 3.393777 -2.719221 15.644861 -10.936938 3.138400 0.025370 -0.137318 -0.026605 21.106971 13.212546 11.298963 15.790778 0.060309 -0.434308 9.344584 -2.843214 -7.293015 0.001684 -0.046857 -0.003132
3.195163 88.173387 28.459129 -59.074371 -8.639322 0.411621 6.900676 2.581938 0.375354 3.920387 1.493476 0.168293 4.901583 1.864771 0.226326 3.920387 1.493475 0.168292 -1.594046 11.835992 -0.083311 -1.644613 -13.227395 0.274154 -8.642805 5.426643 -2.043199 -4.415163 4.719644 92.650287 17.666682 -24.412838 6.329775 -2.443195 -20.113470 3.120103 -12.347323 3.760950 1.924112 6.777309 0.995593 -88.690603 -7.181474 -4.888223 -6.963941 4.480576 -0.018809 -2.044967 -5.439356 12.230626 -11.064022 23.151012 3.411389 -2.734771 15.632474 -10.959832 3.135643 0.025291 -0.134643 -0.026200 21.104394 13.179183 11.297534 15.776763 0.079607 -0.425904 9.324051 -2.855239 -7.309819 0.001147 -0.042388 -0.005101
3.164405 88.167592 28.479177 -59.019717 -8.604452 0.405238 6.861033 2.540427 0.367654 3.896803 1.470965 0.163783 4.872061 1.836699 0.220354 3.896804 1.470965 0.163783 -1.897393 12.302260 0.121296 -2.007828 -12.751201 0.556427 -8.559301 5.406071 -2.090760 -4.427379 4.585208 92.631087 18.328591 -24.821950 6.396631 -2.736664 -20.052405 3.307020 -12.295837 3.628020 1.911133 6.669386 0.789138 -88.580924 -7.790054 -4.743788 -7.489968 4.820825 0.128032 -2.357303 -5.455673 12.229255 -11.045865 23.128317 3.424451 -2.750788 15.614127 -10.980018 3.134893 0.022540 -0.130151 -0.026470 21.106277 13.143939 11.301446 15.766176 0.104134 -0.418266 9.297695 -2.870910 -7.328663 0.001376 -0.036317 -0.005261
3.134662 88.161252 28.497798 -58.966133 -8.570607 0.398210 6.821604 2.494956 0.357540 3.873550 1.445547 0.158609 4.842947 1.804999 0.213524 3.873551 1.445546 0.158609 -2.234112 12.807833 0.338271 -2.412175 -12.231620 0.860323 -8.472834 5.381663 -2.123248 -4.534293 4.447926 92.555260 19.035071 -25.218950 6.544492 -3.012480 -19.993737 3.512100 -12.240993 3.506112 1.883852 6.610301 0.535149 -88.457404 -8.409401 -4.560024 -8.067131 5.147579 0.226772 -2.636294 -5.483748 12.228797 -11.029272 23.113089 3.432026 -2.769447 15.596981 -10.998881 3.138033 0.018656 -0.123632 -0.027935 21.112646 13.106426 11.307412 15.752112 0.131099 -0.410597 9.271032 -2.889580 -7.347098 0.002435 -0.028249 -0.005290
3.106038 88.154366 28.515228 -58.913828 -8.536126 0.389504 6.782338 2.447078 0.345742 3.851097 1.417341 0.153163 4.814831 1.769817 0.206331 3.851099 1.417340 0.153162 -2.605339 13.347417 0.563026 -2.858815 -11.671193 1.182241 -8.385008 5.348591 -2.141433 -4.719685 4.314982 92.430241 19.798637 -25.612235 6.762239 -3.268876 -19.936123 3.729347 -12.188760 3.393469 1.843741 6.573331 0.241871 -88.325718 -9.047900 -4.379059 -8.689327 5.439735 0.284733 -2.870221 -5.522781 12.229474 -11.013305 23.103648 3.430479 -2.794151 15.589408 -11.016400 3.145960 0.016535 -0.115321 -0.029506 21.117970 13.065693 11.313392 15.734099 0.160646 -0.400911 9.249518 -2.912132 -7.364405 0.003883 -0.017926 -0.006483
